# xmcd CD database file
#
# Track frame offsets:
#	150
#	24641
#	53108
#	84345
#	109313
#	133737
#	161325
#	182636
#	212804
#	239408
#
# Disc length: 3542 seconds
#
# Revision: 0
# Processed by: cddbd v1.5.2PL0 Copyright (c) Steve Scherf et al.
# Submitted via: CDex 1.70beta2
#
DISCID=840dd40a
DTITLE=Mike Ricchiuti - The Way I See It
DYEAR=2003
DGENRE=Jazz
TTITLE0=01-Forward Motion
TTITLE1=02-Up All Night
TTITLE2=03-Embrace
TTITLE3=04-The Way I See It
TTITLE4=05-Still Standing
TTITLE5=06-Just So You Know
TTITLE6=07-Dogs In The Neighborhood
TTITLE7=08-Changes
TTITLE8=09-Slow Roller
TTITLE9=10-And Then Peace
EXTD=YEAR: 2003
EXTT0=
EXTT1=
EXTT2=
EXTT3=
EXTT4=
EXTT5=
EXTT6=
EXTT7=
EXTT8=
EXTT9=
PLAYORDER=
